<svg width="135" height="47" viewBox="0 0 135 47" fill="none" xmlns="http://www.w3.org/2000/svg">
<path d="M59.7492 33H57.2894L63.6559 15.5644H66.2845L72.6751 33H70.1912L68.6237 28.6592H61.2926L59.7492 33ZM64.6688 19.3265L62.016 26.6094H67.9244L65.2475 19.3265C65.1993 19.1496 65.143 18.9728 65.0787 18.7959C65.0144 18.603 64.9742 18.4422 64.9581 18.3136C64.926 18.4422 64.8858 18.603 64.8376 18.7959C64.7893 18.9728 64.7331 19.1496 64.6688 19.3265ZM82.4048 21.2075H84.6476V33H82.6219L82.3807 31.2154C82.0431 31.8264 81.5125 32.3248 80.7891 32.7106C80.0656 33.0965 79.2698 33.2894 78.4016 33.2894C77.0351 33.2894 75.974 32.8633 75.2184 32.0113C74.4788 31.1431 74.1091 29.9856 74.1091 28.5386V21.2075H76.3759V27.791C76.3759 29.045 76.6251 29.9454 77.1235 30.492C77.638 31.0225 78.3293 31.2878 79.1974 31.2878C80.2424 31.2878 81.0383 30.9663 81.5849 30.3232C82.1315 29.664 82.4048 28.6994 82.4048 27.4293V21.2075ZM86.6825 21.2075H93.5795V23.1126H86.6825V21.2075ZM91.2645 33H88.9976V17.5178H91.2645V33ZM94.7245 27.0917C94.7245 25.8859 94.9897 24.8168 95.5203 23.8843C96.0508 22.9518 96.7743 22.2203 97.6907 21.6898C98.6232 21.1593 99.6842 20.894 100.874 20.894C102.064 20.894 103.117 21.1593 104.033 21.6898C104.949 22.2203 105.673 22.9518 106.203 23.8843C106.734 24.8168 106.999 25.8859 106.999 27.0917C106.999 28.2975 106.734 29.3666 106.203 30.2991C105.673 31.2315 104.949 31.963 104.033 32.4936C103.117 33.0241 102.064 33.2894 100.874 33.2894C99.6842 33.2894 98.6232 33.0241 97.6907 32.4936C96.7743 31.963 96.0508 31.2315 95.5203 30.2991C94.9897 29.3666 94.7245 28.2975 94.7245 27.0917ZM97.0155 27.0917C97.0155 27.9116 97.1762 28.6351 97.4978 29.2621C97.8354 29.8891 98.2936 30.3794 98.8724 30.7331C99.4511 31.0868 100.118 31.2637 100.874 31.2637C101.63 31.2637 102.297 31.0868 102.876 30.7331C103.454 30.3794 103.904 29.8891 104.226 29.2621C104.564 28.6351 104.732 27.9116 104.732 27.0917C104.732 26.2557 104.564 25.5322 104.226 24.9213C103.904 24.2943 103.454 23.8039 102.876 23.4502C102.297 23.0965 101.63 22.9197 100.874 22.9197C100.118 22.9197 99.4511 23.0965 98.8724 23.4502C98.2936 23.8039 97.8354 24.2943 97.4978 24.9213C97.1762 25.5322 97.0155 26.2557 97.0155 27.0917ZM116.261 21.111V23.185H115.248C114.171 23.185 113.319 23.4985 112.692 24.1255C112.081 24.7364 111.776 25.6126 111.776 26.7541V33H109.509V21.2316H111.631L111.824 23.5949H111.607C111.767 22.8232 112.153 22.1962 112.764 21.7139C113.375 21.2155 114.139 20.9663 115.055 20.9663C115.264 20.9663 115.457 20.9824 115.634 21.0146C115.827 21.0306 116.036 21.0628 116.261 21.111ZM120.702 33H118.435V15.2509H120.702V33ZM124.98 21.2075L129.128 32.6865L127.729 34.6157L122.592 21.2075H124.98ZM122.906 38.2813V36.4244H124.425C124.795 36.4244 125.132 36.3842 125.438 36.3038C125.743 36.2395 126.025 36.0868 126.282 35.8456C126.539 35.6206 126.756 35.2588 126.933 34.7604L131.901 21.2075H134.24L128.669 35.6527C128.267 36.6656 127.761 37.3971 127.15 37.8472C126.539 38.2974 125.784 38.5225 124.883 38.5225C124.513 38.5225 124.168 38.4983 123.846 38.4501C123.525 38.418 123.211 38.3617 122.906 38.2813Z" fill="#0F172A"/>
<path d="M28.7649 35.4615L10.5359 44.4358L18.1079 30.4135H26.2408L28.7649 35.4615Z" fill="#2E65A2"/>
<rect x="19.426" y="0.0369873" width="12.0153" height="46.1934" rx="6.00763" transform="rotate(24.8683 19.426 0.0369873)" fill="#23497B"/>
<rect width="12.2244" height="46.1272" rx="6.11221" transform="matrix(-0.907277 0.420535 0.420535 0.907277 25.3381 0)" fill="#55B7EC"/>
</svg>
